<svg width="280" height="41" viewBox="0 0 280 41" fill="none" xmlns="http://www.w3.org/2000/svg">
<g clip-path="url(#clip0_40_71)">
<path d="M278.84 40.0532H270.546C270.974 37.9264 270.883 35.6143 271.01 33.4257C271.227 29.714 272.071 24.1911 271.67 20.6372C271.059 15.1966 264.817 14.9634 261.921 18.9357C260.922 20.3079 260.43 22.572 260.205 24.2323C259.51 29.4602 260.016 34.8184 259.488 40.0532H251.538C251.44 40.0532 251.131 40.6432 251.187 39.9366C251.489 36.1083 251.735 32.328 251.883 28.4722C251.988 25.7485 252.473 22.6749 252.094 19.9443C251.559 16.116 246.941 15.2584 244.045 17.447C241.24 19.5669 240.889 23.6765 240.601 26.8942C240.2 31.3332 240.27 35.827 240.137 40.2659C240.052 40.3757 239.841 40.0395 239.792 40.0395H232.186C232.137 40.0395 231.926 40.3757 231.842 40.2659C232.517 30.4687 232.939 20.6372 233.22 10.8126H241.05L240.826 15.3064C243.672 11.1556 247.834 9.64625 252.888 10.1608C256.339 10.5107 258.631 12.3082 260.058 15.2995C261.653 12.9394 263.58 11.2242 266.44 10.5176C271.888 9.17286 279.564 10.5862 279.993 17.2068L278.833 40.0326L278.84 40.0532Z" fill="#F05F1F"/>
<path d="M88.5487 0.706659L87.9653 10.8332L93.0405 10.1471C100.316 9.63939 107.359 10.84 109.974 18.3457C112.723 26.2356 109.609 38.3037 100.344 40.4237C95.4164 41.5557 91.0301 40.7599 87.6349 37.0002C87.1991 36.5199 86.9741 35.5594 86.2501 35.5457V40.0395H78.4194L80.0292 0.692938H88.5558L88.5487 0.706659ZM87.424 16.6991C87.2624 19.7453 86.7562 23.1826 86.932 26.2219C87.1991 30.7088 88.7737 34.7087 93.9894 35.0792C101.265 35.6006 103.809 26.613 102.073 21.1175C100.021 14.6272 92.8999 15.2103 87.424 16.6991Z" fill="#F05F1F"/>
<path d="M34.4088 0.933072L34.8728 7.67722C27.1405 5.28281 17.0463 4.91918 11.8727 12.1024C6.95218 18.9358 8.11202 30.1874 16.6738 33.6453C22.2059 35.875 28.6237 34.5646 34.1768 33.0895L32.9819 39.7925C32.8413 39.9503 29.3266 40.4443 28.7572 40.506C21.1374 41.3431 13.0818 41.0549 6.77645 36.3278C-2.7905 29.1446 -1.82045 12.5484 7.11385 5.20734C14.5579 -0.898755 25.341 -0.596881 34.4088 0.933072Z" fill="#F05F1F"/>
<path d="M49.845 10.8263C49.3881 13.797 49.3389 16.905 49.1491 19.9306C48.9593 23.0248 47.933 29.0074 49.2897 31.7174C50.9135 34.9488 56.565 35.0929 59.3627 33.2748C62.6384 31.1479 63.025 27.251 63.4327 23.752L63.8967 10.8263H72.1913L70.4621 40.0532H62.7438L62.9758 35.5594C62.6454 35.1889 61.7738 36.8149 61.591 37.0139C56.0168 43.1543 41.0513 42.6054 40.3905 32.5338C40.0742 27.7107 41.1637 21.3439 41.3325 16.3492C41.3957 14.5174 41.2692 12.665 41.3254 10.8332H49.852L49.845 10.8263Z" fill="#F05F1F"/>
<path d="M224.243 40.0532H215.949L216.869 24.9938C216.736 24.8429 214.367 26.1258 213.938 26.2905C210.571 27.5323 203.008 28.1703 203.261 32.9798C203.486 37.2197 210.311 36.9247 213.179 35.5594C212.722 36.4033 212.181 40.0944 211.569 40.3963C210.951 40.6981 206.621 40.9863 205.686 40.9657C199.648 40.8559 194.685 37.9813 195.465 31.4292C196.4 23.5805 208.167 23.5187 213.699 21.3439C218.057 19.6355 217.783 15.2515 213.277 14.6683C208.701 14.0852 203.886 15.5602 199.591 16.8981L200.315 11.7594C206.072 10.3598 218.908 8.37015 223.435 12.8571C225.375 14.785 225.241 17.6665 225.178 20.1707C225.066 24.4175 224.398 28.7124 224.236 32.966C224.145 35.3193 224.321 37.7 224.243 40.0601" fill="#F05F1F"/>
<path d="M143.146 40.0532H134.851L136.004 24.9938C135.814 24.8154 133.431 26.1533 132.904 26.3522C129.698 27.5323 122.177 28.1978 122.226 32.7533C122.275 37.2129 129.101 36.7806 132.088 35.7858L130.718 40.4031C124.792 41.3156 116.244 41.7204 114.642 34.4891C112.287 23.9029 126.535 23.7726 132.848 21.3439C137.206 19.6698 136.622 15.2035 132.18 14.6752C127.463 14.1195 122.922 15.6014 118.501 16.8981L119.576 11.7113C121.27 11.3889 122.971 10.9224 124.672 10.6685C129.621 9.94127 140.967 8.96704 143.546 14.3733C145.072 17.5636 143.574 27.1961 143.371 31.1616C143.216 34.1049 143.286 37.1031 143.153 40.0532" fill="#F05F1F"/>
<path d="M154.09 11.0459C154.322 10.9018 154.386 10.7371 154.435 10.4833C154.561 9.79719 154.47 5.38571 154.667 5.20047C156.909 5.30338 159.847 3.8489 161.921 3.84204C162.28 3.84204 162.315 3.78029 162.265 4.17821L162.033 11.0459H169.639L169.407 16.4384H161.802C161.591 18.4143 161.675 20.4108 161.57 22.3936C161.422 25.1653 160.607 30.551 161.52 33.0141C162.673 36.1426 166.828 34.6058 169.182 34.5371L168.037 39.9366C163.868 41.1852 155.096 42.0497 153.345 36.9453C152.213 33.6315 153.317 27.4088 153.507 23.7383C153.633 21.3096 153.676 18.8603 153.739 16.4316H149.592L149.824 11.039H154.083L154.09 11.0459Z" fill="#F05F1F"/>
<path d="M193.37 16.8912C189.813 16.3218 186.622 16.4453 184.267 19.3611C182.243 21.8653 181.99 26.0298 181.842 29.1377C181.673 32.8357 181.99 36.5748 181.849 40.2728C181.765 40.3825 181.554 40.0464 181.505 40.0464H173.555C173.576 39.0378 173.519 38.0224 173.555 37.0139C173.843 29.3092 174.7 21.5634 174.721 13.8588C174.721 12.9531 174.243 11.8348 174.468 10.8263H182.531L182.299 14.6478C182.833 14.785 182.686 14.5243 182.826 14.3665C184.605 12.3425 185.729 10.7165 188.738 10.2569C189.497 10.1402 192.899 9.88638 193.096 10.5244C193.124 10.6136 193.356 11.9858 193.356 12.0681V16.905L193.37 16.8912Z" fill="#F05F1F"/>
</g>
<defs>
<clipPath id="clip0_40_71">
<rect width="280" height="41" fill="white"/>
</clipPath>
</defs>
</svg>
