<svg width="280" height="41" viewBox="0 0 280 41" fill="none" xmlns="http://www.w3.org/2000/svg">
<g clip-path="url(#clip0_40_133)">
<path d="M278.84 40.0533H270.546C270.974 37.9264 270.883 35.6144 271.009 33.4258C271.227 29.7141 272.071 24.1912 271.67 20.6373C271.059 15.1967 264.817 14.9634 261.92 18.9358C260.922 20.308 260.43 22.572 260.205 24.2323C259.509 29.4602 260.016 34.8185 259.488 40.0533H251.538C251.44 40.0533 251.13 40.6433 251.187 39.9367C251.489 36.1083 251.735 32.3281 251.883 28.4723C251.988 25.7486 252.473 22.6749 252.093 19.9443C251.559 16.116 246.941 15.2584 244.045 17.447C241.24 19.567 240.889 23.6766 240.6 26.8943C240.2 31.3332 240.27 35.827 240.137 40.266C240.052 40.3757 239.841 40.0396 239.792 40.0396H232.186C232.137 40.0396 231.926 40.3757 231.842 40.266C232.517 30.4688 232.938 20.6373 233.22 10.8127H241.05L240.825 15.3065C243.672 11.1557 247.834 9.64632 252.888 10.1609C256.339 10.5108 258.631 12.3083 260.058 15.2996C261.653 12.9395 263.579 11.2243 266.44 10.5176C271.888 9.17293 279.564 10.5862 279.993 17.2069L278.833 40.0327L278.84 40.0533Z" fill="#EEEDED"/>
<path d="M88.5487 0.706593L87.9653 10.8331L93.0405 10.147C100.316 9.63932 107.359 10.84 109.974 18.3456C112.723 26.2355 109.609 38.3036 100.344 40.4236C95.4164 41.5557 91.0301 40.7598 87.6349 37.0001C87.1991 36.5198 86.9741 35.5593 86.2501 35.5456V40.0394H78.4194L80.0292 0.692871H88.5558L88.5487 0.706593ZM87.424 16.6991C87.2624 19.7452 86.7562 23.1825 86.932 26.2218C87.1991 30.7088 88.7737 34.7086 93.9894 35.0791C101.265 35.6005 103.809 26.6129 102.073 21.1174C100.021 14.6271 92.8999 15.2103 87.424 16.6991Z" fill="#EEEDED"/>
<path d="M34.4088 0.933114L34.8727 7.67726C27.1405 5.28285 17.0463 4.91923 11.8727 12.1025C6.95218 18.9358 8.11202 30.1875 16.6738 33.6453C22.2059 35.8751 28.6237 34.5646 34.1768 33.0896L32.9819 39.7926C32.8413 39.9504 29.3266 40.4443 28.7572 40.5061C21.1374 41.3431 13.0818 41.0549 6.77645 36.3279C-2.7905 29.1446 -1.82045 12.5484 7.11385 5.20738C14.5579 -0.898713 25.341 -0.596839 34.4088 0.933114Z" fill="#EEEDED"/>
<path d="M49.8451 10.8264C49.3882 13.7971 49.339 16.9051 49.1492 19.9307C48.9594 23.0249 47.9331 29.0075 49.2898 31.7175C50.9136 34.9489 56.5652 35.093 59.3628 33.2749C62.6385 31.148 63.0251 27.2511 63.4328 23.7521L63.8968 10.8264H72.1914L70.4622 40.0533H62.744L62.9759 35.5595C62.6456 35.189 61.7739 36.815 61.5912 37.014C56.0169 43.1544 41.0514 42.6055 40.3906 32.5339C40.0743 27.7108 41.1639 21.344 41.3326 16.3493C41.3958 14.5175 41.2693 12.6651 41.3255 10.8333H49.8521L49.8451 10.8264Z" fill="#EEEDED"/>
<path d="M224.243 40.0531H215.949L216.869 24.9937C216.736 24.8428 214.367 26.1257 213.938 26.2904C210.571 27.5322 203.008 28.1703 203.261 32.9797C203.486 37.2196 210.311 36.9246 213.179 35.5593C212.722 36.4032 212.181 40.0943 211.569 40.3962C210.951 40.698 206.621 40.9862 205.686 40.9656C199.648 40.8558 194.685 37.9812 195.465 31.4291C196.4 23.5804 208.167 23.5187 213.699 21.3438C218.057 19.6355 217.783 15.2514 213.277 14.6682C208.701 14.0851 203.886 15.5602 199.591 16.898L200.315 11.7593C206.072 10.3597 218.908 8.37006 223.435 12.857C225.375 14.7849 225.241 17.6664 225.178 20.1706C225.066 24.4174 224.398 28.7123 224.236 32.9659C224.145 35.3192 224.321 37.6999 224.243 40.06" fill="#EEEDED"/>
<path d="M143.146 40.0531H134.851L136.004 24.9937C135.814 24.8154 133.431 26.1532 132.904 26.3522C129.698 27.5322 122.177 28.1977 122.226 32.7533C122.275 37.2128 129.101 36.7806 132.088 35.7857L130.718 40.403C124.792 41.3155 116.244 41.7203 114.642 34.4891C112.287 23.9029 126.535 23.7725 132.848 21.3438C137.206 19.6698 136.622 15.2034 132.18 14.6751C127.463 14.1194 122.922 15.6013 118.501 16.898L119.576 11.7113C121.27 11.3888 122.971 10.9223 124.672 10.6684C129.621 9.94119 140.967 8.96696 143.546 14.3733C145.072 17.5635 143.574 27.196 143.371 31.1616C143.216 34.1048 143.286 37.103 143.153 40.0531" fill="#EEEDED"/>
<path d="M154.09 11.0459C154.322 10.9018 154.386 10.7372 154.435 10.4833C154.561 9.79724 154.47 5.38576 154.667 5.20052C156.909 5.30343 159.847 3.84895 161.921 3.84209C162.28 3.84209 162.315 3.78034 162.265 4.17826L162.033 11.0459H169.639L169.407 16.4385H161.802C161.591 18.4144 161.675 20.4109 161.57 22.3936C161.422 25.1654 160.607 30.5511 161.52 33.0141C162.673 36.1426 166.828 34.6058 169.182 34.5372L168.037 39.9366C163.868 41.1853 155.096 42.0498 153.345 36.9453C152.213 33.6316 153.317 27.4089 153.507 23.7383C153.633 21.3096 153.676 18.8603 153.739 16.4316H149.592L149.824 11.039H154.083L154.09 11.0459Z" fill="#EEEDED"/>
<path d="M193.37 16.8913C189.813 16.3218 186.622 16.4453 184.267 19.3612C182.243 21.8653 181.99 26.0298 181.842 29.1378C181.673 32.8357 181.99 36.5749 181.849 40.2728C181.765 40.3826 181.554 40.0464 181.505 40.0464H173.555C173.576 39.0379 173.519 38.0225 173.555 37.0139C173.843 29.3093 174.7 21.5635 174.721 13.8588C174.721 12.9532 174.243 11.8349 174.468 10.8264H182.531L182.299 14.6478C182.833 14.785 182.686 14.5243 182.826 14.3665C184.605 12.3426 185.729 10.7166 188.738 10.2569C189.497 10.1403 192.899 9.88643 193.096 10.5245C193.124 10.6137 193.356 11.9858 193.356 12.0682V16.905L193.37 16.8913Z" fill="#EEEDED"/>
</g>
<defs>
<clipPath id="clip0_40_133">
<rect width="280" height="41" fill="white"/>
</clipPath>
</defs>
</svg>
